<svg width="279" height="74" viewBox="0 0 279 74" fill="none" xmlns="http://www.w3.org/2000/svg">
<path d="M100.473 42.6752C100.473 39.3654 100.055 36.9839 99.2176 35.5308C98.4205 34.0374 96.9059 33.2907 94.6739 33.2907C93.8768 33.2907 92.9999 33.3512 92.0433 33.4723C91.0868 33.5934 90.3693 33.6943 89.8911 33.775V59.3252H82.657V28.6892C84.052 28.2856 85.8655 27.9021 88.0975 27.5388C90.3693 27.1756 92.7608 26.9939 95.2718 26.9939C97.4241 26.9939 99.1778 27.2765 100.533 27.8416C101.928 28.4067 103.084 29.1534 104 30.0817C104.439 29.7588 104.997 29.4158 105.674 29.0525C106.352 28.6892 107.109 28.3663 107.946 28.0838C108.783 27.7608 109.66 27.4985 110.577 27.2967C111.533 27.0948 112.49 26.9939 113.447 26.9939C115.878 26.9939 117.871 27.3572 119.425 28.0838C121.019 28.7699 122.255 29.7588 123.132 31.0505C124.049 32.3018 124.666 33.8355 124.985 35.6519C125.344 37.4279 125.523 39.3855 125.523 41.5248V59.3252H118.289V42.6752C118.289 39.3654 117.891 36.9839 117.094 35.5308C116.296 34.0374 114.762 33.2907 112.49 33.2907C111.334 33.2907 110.238 33.4925 109.202 33.8961C108.166 34.2594 107.388 34.6226 106.87 34.9859C107.189 35.995 107.408 37.0646 107.528 38.1948C107.647 39.325 107.707 40.5359 107.707 41.8275V59.3252H100.473V42.6752ZM162.664 43.4623C162.664 45.9648 162.306 48.2454 161.588 50.3039C160.871 52.3624 159.854 54.1183 158.539 55.5714C157.224 57.0244 155.629 58.1546 153.756 58.9619C151.923 59.7692 149.89 60.1728 147.658 60.1728C145.426 60.1728 143.393 59.7692 141.56 58.9619C139.726 58.1546 138.152 57.0244 136.837 55.5714C135.522 54.1183 134.485 52.3624 133.728 50.3039C133.011 48.2454 132.652 45.9648 132.652 43.4623C132.652 40.9597 133.011 38.6994 133.728 36.6812C134.485 34.6226 135.522 32.8668 136.837 31.4137C138.192 29.9607 139.786 28.8507 141.62 28.0838C143.453 27.2765 145.466 26.8728 147.658 26.8728C149.85 26.8728 151.863 27.2765 153.696 28.0838C155.57 28.8507 157.164 29.9607 158.479 31.4137C159.795 32.8668 160.811 34.6226 161.528 36.6812C162.286 38.6994 162.664 40.9597 162.664 43.4623ZM155.251 43.4623C155.251 40.3139 154.573 37.8315 153.218 36.0152C151.903 34.1584 150.049 33.2301 147.658 33.2301C145.267 33.2301 143.393 34.1584 142.038 36.0152C140.723 37.8315 140.065 40.3139 140.065 43.4623C140.065 46.651 140.723 49.1737 142.038 51.0304C143.393 52.8872 145.267 53.8155 147.658 53.8155C150.049 53.8155 151.903 52.8872 153.218 51.0304C154.573 49.1737 155.251 46.651 155.251 43.4623ZM169.758 19.3047L176.992 18.0938V27.6599H188.112V33.775H176.992V46.6712C176.992 49.2141 177.391 51.0304 178.188 52.1203C178.985 53.2101 180.34 53.755 182.253 53.755C183.569 53.755 184.725 53.6137 185.721 53.3312C186.757 53.0486 187.574 52.7863 188.172 52.5441L189.368 58.3564C188.531 58.7197 187.435 59.083 186.08 59.4463C184.724 59.8499 183.13 60.0517 181.297 60.0517C179.065 60.0517 177.191 59.749 175.677 59.1435C174.202 58.5381 173.026 57.6703 172.15 56.5401C171.273 55.3695 170.655 53.977 170.296 52.3624C169.938 50.7075 169.758 48.8306 169.758 46.7317V19.3047ZM220.754 58.3564C219.359 58.7197 217.545 59.083 215.313 59.4463C213.081 59.8499 210.63 60.0517 207.96 60.0517C205.449 60.0517 203.336 59.6884 201.622 58.9619C199.948 58.2354 198.593 57.2263 197.557 55.9346C196.56 54.643 195.843 53.1092 195.405 51.3332C194.966 49.5168 194.747 47.539 194.747 45.3997V27.6599H201.981V44.2494C201.981 47.6399 202.459 50.0617 203.416 51.5148C204.412 52.9679 206.126 53.6944 208.557 53.6944C209.434 53.6944 210.351 53.6541 211.308 53.5734C212.304 53.4926 213.041 53.3917 213.52 53.2706V27.6599H220.754V58.3564ZM247.777 42.6752C247.777 39.3654 247.359 36.9839 246.522 35.5308C245.725 34.0374 244.21 33.2907 241.978 33.2907C241.181 33.2907 240.304 33.3512 239.347 33.4723C238.391 33.5934 237.673 33.6943 237.195 33.775V59.3252H229.961V28.6892C231.356 28.2856 233.17 27.9021 235.402 27.5388C237.673 27.1756 240.065 26.9939 242.576 26.9939C244.728 26.9939 246.482 27.2765 247.837 27.8416C249.232 28.4067 250.388 29.1534 251.305 30.0817C251.743 29.7588 252.301 29.4158 252.979 29.0525C253.656 28.6892 254.413 28.3663 255.25 28.0838C256.087 27.7608 256.964 27.4985 257.881 27.2967C258.838 27.0948 259.794 26.9939 260.751 26.9939C263.182 26.9939 265.175 27.3572 266.729 28.0838C268.324 28.7699 269.559 29.7588 270.436 31.0505C271.353 32.3018 271.97 33.8355 272.289 35.6519C272.648 37.4279 272.827 39.3855 272.827 41.5248V59.3252H265.593V42.6752C265.593 39.3654 265.195 36.9839 264.398 35.5308C263.6 34.0374 262.066 33.2907 259.794 33.2907C258.638 33.2907 257.542 33.4925 256.506 33.8961C255.47 34.2594 254.692 34.6226 254.174 34.9859C254.493 35.995 254.712 37.0646 254.832 38.1948C254.951 39.325 255.011 40.5359 255.011 41.8275V59.3252H247.777V42.6752Z" fill="#FF5116"/>
<path d="M0 17.2796C0 11.7066 4.46118 7.18872 9.96429 7.18872H53.1429C58.6461 7.18872 63.1071 11.7066 63.1071 17.2796V57.6432C63.1071 63.2164 58.6461 67.7341 53.1429 67.7341H9.96429C4.46118 67.7341 0 63.2164 0 57.6432V17.2796Z" fill="#1E1F20"/>
<path d="M16.5289 20.1226L33.9507 37.7655" stroke="#FF5116" stroke-width="4" stroke-linecap="round"/>
<path d="M16.5255 55.4435L33.9473 37.8002" stroke="#FF5116" stroke-width="4" stroke-linecap="round"/>
<path d="M31.9243 20.1226L49.3458 37.7655" stroke="#FF5116" stroke-width="4" stroke-linecap="round"/>
<path d="M31.9209 55.4435L49.3424 37.8002" stroke="#FF5116" stroke-width="4" stroke-linecap="round"/>
</svg>
